<?xml version="1.0" encoding="UTF-8"?>
<svg version="1.1" xmlns="http://www.w3.org/2000/svg" width="48" height="48">
<path d="M0 0 C15.84 0 31.68 0 48 0 C48 15.84 48 31.68 48 48 C32.16 48 16.32 48 0 48 C0 32.16 0 16.32 0 0 Z " fill="#FCF3F3" transform="translate(0,0)"/>
<path d="M0 0 C15.84 0 31.68 0 48 0 C48 7.92 48 15.84 48 24 C45.69 24 43.38 24 41 24 C39.948125 24.350625 38.89625 24.70125 37.8125 25.0625 C34.81358241 26.0621392 33.90438948 25.88935267 31 25 C32.28913487 24.32845067 33.58140204 23.66291141 34.875 23 C35.59429687 22.62875 36.31359375 22.2575 37.0546875 21.875 C39 21 39 21 41 21 C41 19.68 41 18.36 41 17 C39.86820313 17.31195312 38.73640625 17.62390625 37.5703125 17.9453125 C36.08870522 18.33915747 34.60692524 18.73235314 33.125 19.125 C32.37863281 19.33253906 31.63226562 19.54007813 30.86328125 19.75390625 C28.93009221 20.25897366 26.96511283 20.63855219 25 21 C24.34 20.34 23.68 19.68 23 19 C32.41002278 15.55580866 32.41002278 15.55580866 37 16 C36.505 14.515 36.505 14.515 36 13 C29.44863988 13.77167463 23.64158319 15.77699226 17.625 18.375 C16.59052734 18.81307983 16.59052734 18.81307983 15.53515625 19.26000977 C11.64577908 20.99110609 8.78123353 22.76235892 6 26 C6.59167969 25.69964844 7.18335938 25.39929688 7.79296875 25.08984375 C14.32761578 21.94511149 14.32761578 21.94511149 18.0625 22.25 C18.701875 22.4975 19.34125 22.745 20 23 C19.67 23.66 19.34 24.32 19 25 C17 25.66666667 15 26.33333333 13 27 C10.36459455 28.27936222 7.76641156 29.61639636 5.171875 30.9765625 C3 32 3 32 1 32 C1 33.32 1 34.64 1 36 C1.66 36.33 2.32 36.66 3 37 C1.515 37.495 1.515 37.495 0 38 C0 25.46 0 12.92 0 0 Z " fill="#FDF9F9" transform="translate(0,0)"/>
<path d="M0 0 C-0.45445964 1.41791408 -0.91374944 2.83428046 -1.375 4.25 C-1.75785156 5.43335938 -1.75785156 5.43335938 -2.1484375 6.640625 C-2.42945312 7.41921875 -2.71046875 8.1978125 -3 9 C-3.25136719 9.70125 -3.50273437 10.4025 -3.76171875 11.125 C-5.52296965 13.79187834 -7.52884352 14.49846653 -10.4375 15.75 C-11.40558594 16.17796875 -12.37367187 16.6059375 -13.37109375 17.046875 C-16 18 -16 18 -19 18 C-19 16.68 -19 15.36 -19 14 C-18.34 13.67 -17.68 13.34 -17 13 C-17.33 11.35 -17.66 9.7 -18 8 C-15.3773768 6.66180502 -12.75213401 5.3292849 -10.125 4 C-9.00544922 3.42765625 -9.00544922 3.42765625 -7.86328125 2.84375 C-7.14785156 2.4828125 -6.43242187 2.121875 -5.6953125 1.75 C-5.03547363 1.41484375 -4.37563477 1.0796875 -3.69580078 0.734375 C-2 0 -2 0 0 0 Z " fill="#ED1B17" transform="translate(19,24)"/>
<path d="M0 0 C0 0.99 0 1.98 0 3 C-1.08796875 3.30292969 -2.1759375 3.60585938 -3.296875 3.91796875 C-11.36554744 6.20502829 -19.11033282 8.65455043 -26.77734375 12.08203125 C-29 13 -29 13 -31 13 C-30 10 -30 10 -27.26171875 8.31640625 C-5.97179389 -2.13078092 -5.97179389 -2.13078092 0 0 Z " fill="#ED1C19" transform="translate(37,13)"/>
<path d="M0 0 C-0.33 1.65 -0.66 3.3 -1 5 C-2.65 5.33 -4.3 5.66 -6 6 C-6.33 6.99 -6.66 7.98 -7 9 C-9.31 9.33 -11.62 9.66 -14 10 C-14.99 8.02 -15.98 6.04 -17 4 C-15.72942818 3.52014033 -14.45853152 3.0411407 -13.1875 2.5625 C-12.47980469 2.29566406 -11.77210937 2.02882813 -11.04296875 1.75390625 C-7.13986507 0.31356398 -4.15976143 -0.09243914 0 0 Z " fill="#EE1914" transform="translate(47,23)"/>
<path d="M0 0 C0 1.32 0 2.64 0 4 C-1.57533086 4.86883706 -3.16064509 5.71959068 -4.75 6.5625 C-5.63171875 7.03816406 -6.5134375 7.51382812 -7.421875 8.00390625 C-10 9 -10 9 -12.203125 8.90234375 C-14.56231367 7.71762074 -15.06538578 6.41442007 -16 4 C-14.274773 3.32320342 -12.54461061 2.65898 -10.8125 2 C-9.84957031 1.62875 -8.88664062 1.2575 -7.89453125 0.875 C-5.07817642 0.02363228 -2.91835561 -0.17072647 0 0 Z " fill="#ED1814" transform="translate(41,17)"/>
<path d="M0 0 C1.32 0.66 2.64 1.32 4 2 C3.8671875 4.2890625 3.8671875 4.2890625 3 7 C0.3828125 8.8359375 0.3828125 8.8359375 -2.875 10.375 C-4.47988281 11.16003906 -4.47988281 11.16003906 -6.1171875 11.9609375 C-9 13 -9 13 -12 12 C-12 11.01 -12 10.02 -12 9 C-8.94736336 8.01879536 -7.05263664 8.01879536 -4 9 C-3.71125 8.071875 -3.4225 7.14375 -3.125 6.1875 C-2 3 -2 3 0 0 Z " fill="#ED1F1B" transform="translate(23,30)"/>
<path d="M0 0 C0.99386719 0.00902344 1.98773438 0.01804688 3.01171875 0.02734375 C4.15060547 0.04474609 4.15060547 0.04474609 5.3125 0.0625 C5.6425 1.3825 5.9725 2.7025 6.3125 4.0625 C4.6625 4.3925 3.0125 4.7225 1.3125 5.0625 C1.3125 4.0725 1.3125 3.0825 1.3125 2.0625 C0.6525 2.0625 -0.0075 2.0625 -0.6875 2.0625 C-1.0175 3.0525 -1.3475 4.0425 -1.6875 5.0625 C-1.6875 4.0725 -1.6875 3.0825 -1.6875 2.0625 C-2.3475 2.0625 -3.0075 2.0625 -3.6875 2.0625 C-4.0175 3.0525 -4.3475 4.0425 -4.6875 5.0625 C-6.0075 4.7325 -7.3275 4.4025 -8.6875 4.0625 C-8.6875 3.0725 -8.6875 2.0825 -8.6875 1.0625 C-5.53819107 0.01273036 -3.29935544 -0.03881595 0 0 Z " fill="#F26564" transform="translate(34.6875,38.9375)"/>
<path d="M0 0 C0.66 0.33 1.32 0.66 2 1 C2 1.99 2 2.98 2 4 C0.3767313 4.6708712 -1.24867578 5.33657029 -2.875 6 C-4.23238281 6.556875 -4.23238281 6.556875 -5.6171875 7.125 C-8 8 -8 8 -10 8 C-8.7820245 4.34607349 -7.85603494 4.04168301 -4.5625 2.25 C-3.75941406 1.80140625 -2.95632812 1.3528125 -2.12890625 0.890625 C-1.07509766 0.44976563 -1.07509766 0.44976563 0 0 Z " fill="#EE302C" transform="translate(16,18)"/>
<path d="M0 0 C0.33 0.66 0.66 1.32 1 2 C1.66 2.33 2.32 2.66 3 3 C0.92289254 3.72638729 -1.16200312 4.43053408 -3.25 5.125 C-4.41015625 5.51945312 -5.5703125 5.91390625 -6.765625 6.3203125 C-10 7 -10 7 -12.421875 6.1171875 C-12.94265625 5.74851562 -13.4634375 5.37984375 -14 5 C-4.58997722 1.55580866 -4.58997722 1.55580866 0 2 C0 1.34 0 0.68 0 0 Z " fill="#FACFCE" transform="translate(37,14)"/>
<path d="M0 0 C-1 2 -1 2 -3.8125 3.0625 C-6.2019167 3.76526962 -8.57406149 4.44016804 -11 5 C-11.33 4.01 -11.66 3.02 -12 2 C-4.71428571 -1.57142857 -4.71428571 -1.57142857 0 0 Z " fill="#FBDBDB" transform="translate(20,23)"/>
<path d="M0 0 C0 0.99 0 1.98 0 3 C-2.31 3.33 -4.62 3.66 -7 4 C-7 3.34 -7 2.68 -7 2 C-8.32 1.67 -9.64 1.34 -11 1 C-3.57142857 -1.42857143 -3.57142857 -1.42857143 0 0 Z " fill="#EF3330" transform="translate(37,13)"/>
<path d="M0 0 C2.0625 0.4375 2.0625 0.4375 4 1 C3.67 2.32 3.34 3.64 3 5 C1.35 5.33 -0.3 5.66 -2 6 C-1.125 1.125 -1.125 1.125 0 0 Z " fill="#ED241F" transform="translate(21,8)"/>
<path d="M0 0 C0.33 0.99 0.66 1.98 1 3 C-1.8125 4.5625 -1.8125 4.5625 -5 6 C-5.99 5.67 -6.98 5.34 -8 5 C-8 4.01 -8 3.02 -8 2 C-4.94736336 1.01879536 -3.05263664 1.01879536 0 2 C0 1.34 0 0.68 0 0 Z " fill="#EE312E" transform="translate(19,37)"/>
<path d="M0 0 C0 0.99 0 1.98 0 3 C-3.83887763 4.48320272 -6.06204091 5.22419163 -10 4 C-8.71086513 3.32845067 -7.41859796 2.66291141 -6.125 2 C-5.40570313 1.62875 -4.68640625 1.2575 -3.9453125 0.875 C-2 0 -2 0 0 0 Z " fill="#F9C8C7" transform="translate(41,21)"/>
</svg>
