<?xml version="1.0" encoding="UTF-8"?>
<!DOCTYPE svg PUBLIC "-//W3C//DTD SVG 1.1//EN" "http://www.w3.org/Graphics/SVG/1.1/DTD/svg11.dtd">
<svg xmlns="http://www.w3.org/2000/svg" version="1.1" width="241px" height="209px" style="shape-rendering:geometricPrecision; text-rendering:geometricPrecision; image-rendering:optimizeQuality; fill-rule:evenodd; clip-rule:evenodd" xmlns:xlink="http://www.w3.org/1999/xlink">
<g><path style="opacity:1" fill="#fefdfd" d="M -0.5,-0.5 C 79.8333,-0.5 160.167,-0.5 240.5,-0.5C 240.5,69.1667 240.5,138.833 240.5,208.5C 160.167,208.5 79.8333,208.5 -0.5,208.5C -0.5,138.833 -0.5,69.1667 -0.5,-0.5 Z"/></g>
<g><path style="opacity:1" fill="#ed1009" d="M 113.5,30.5 C 118.963,29.7839 122.463,32.1172 124,37.5C 125.903,46.6896 123.07,54.023 115.5,59.5C 112.894,60.6517 110.227,60.8184 107.5,60C 100.496,53.6258 99.6622,46.4591 105,38.5C 107.729,35.6007 110.562,32.934 113.5,30.5 Z"/></g>
<g><path style="opacity:1" fill="#ed0d08" d="M 168.5,49.5 C 172.436,49.9544 174.603,52.2878 175,56.5C 175.497,58.8098 175.663,61.1432 175.5,63.5C 136.281,72.4617 98.6146,85.795 62.5,103.5C 61.2322,102.572 59.8989,102.405 58.5,103C 56.1667,104.5 53.8333,106 51.5,107.5C 50.7022,105.922 50.2022,104.256 50,102.5C 49.2496,101.874 48.4162,101.374 47.5,101C 54.6545,95.2534 62.3212,90.2534 70.5,86C 101.889,70.1512 134.556,57.9845 168.5,49.5 Z"/></g>
<g><path style="opacity:1" fill="#ed0b06" d="M 184.5,67.5 C 186.716,68.2026 188.549,69.5359 190,71.5C 192.923,75.5336 194.089,79.8669 193.5,84.5C 176.469,92.0988 159.636,100.099 143,108.5C 136.626,101.958 130.126,95.6245 123.5,89.5C 124.09,88.2011 125.09,87.3678 126.5,87C 145.827,80.1763 165.16,73.6763 184.5,67.5 Z"/></g>
<g><path style="opacity:1" fill="#ee0c06" d="M 209.5,92.5 C 212.547,91.8554 214.713,92.8554 216,95.5C 217.696,100.661 217.863,105.827 216.5,111C 207.05,113.261 197.716,115.928 188.5,119C 187.572,119.388 186.905,120.055 186.5,121C 187.738,123.715 187.738,126.382 186.5,129C 177.653,131.671 168.986,134.838 160.5,138.5C 159.836,134.346 158.669,130.346 157,126.5C 153.155,121.461 149.322,116.461 145.5,111.5C 145.709,110.914 146.043,110.414 146.5,110C 167.428,103.355 188.428,97.5219 209.5,92.5 Z"/></g>
<g><path style="opacity:1" fill="#ed0905" d="M 34.5,151.5 C 42.3473,147.076 50.3473,142.909 58.5,139C 50.5801,140.641 42.9134,143.308 35.5,147C 33.735,147.64 32.0683,147.473 30.5,146.5C 29.6006,143.4 28.9339,140.233 28.5,137C 28.3536,134.966 29.0203,133.299 30.5,132C 54.3455,119.077 78.6788,107.243 103.5,96.5C 96.3143,114.05 89.3143,131.717 82.5,149.5C 65.1616,157.503 47.8282,165.503 30.5,173.5C 27.5424,172.62 25.7091,170.62 25,167.5C 23.6815,164.594 23.3482,161.594 24,158.5C 27.2706,155.784 30.7706,153.451 34.5,151.5 Z"/></g>
<g><path style="opacity:1" fill="#ed0d08" d="M 119.5,119.5 C 124.482,122.317 128.316,126.317 131,131.5C 134.252,136.827 135.419,142.494 134.5,148.5C 115.221,157.473 96.2212,166.973 77.5,177C 73.7595,176.24 71.5928,173.74 71,169.5C 70.3333,166.833 70.3333,164.167 71,161.5C 74.3713,159.3 77.8713,157.3 81.5,155.5C 86.4964,160.584 92.4964,162.25 99.5,160.5C 106.978,147.21 113.645,133.543 119.5,119.5 Z"/></g>
<g><path style="opacity:1" fill="#f9d2cf" d="M 34.5,151.5 C 34.5,150.5 34.5,149.5 34.5,148.5C 32.5168,148.843 31.1834,148.176 30.5,146.5C 32.0683,147.473 33.735,147.64 35.5,147C 42.9134,143.308 50.5801,140.641 58.5,139C 50.3473,142.909 42.3473,147.076 34.5,151.5 Z"/></g>
<g><path style="opacity:1" fill="#ed130c" d="M 131.5,162.5 C 133.5,162.5 135.5,162.5 137.5,162.5C 137.334,166.846 137.501,171.179 138,175.5C 139.667,176.833 141.333,176.833 143,175.5C 143.499,171.179 143.666,166.846 143.5,162.5C 145.5,162.5 147.5,162.5 149.5,162.5C 149.666,167.179 149.499,171.845 149,176.5C 147.196,179.817 144.363,181.15 140.5,180.5C 136.719,181.173 133.886,179.839 132,176.5C 131.501,171.845 131.334,167.179 131.5,162.5 Z"/></g>
<g><path style="opacity:1" fill="#ed0c08" d="M 152.5,162.5 C 158.5,162.5 164.5,162.5 170.5,162.5C 170.5,163.833 170.5,165.167 170.5,166.5C 168.5,166.5 166.5,166.5 164.5,166.5C 164.5,171.167 164.5,175.833 164.5,180.5C 162.5,180.5 160.5,180.5 158.5,180.5C 158.5,175.833 158.5,171.167 158.5,166.5C 156.5,166.5 154.5,166.5 152.5,166.5C 152.5,165.167 152.5,163.833 152.5,162.5 Z"/></g>
<g><path style="opacity:1" fill="#f78786" d="M 183.5,162.5 C 180.167,162.5 176.833,162.5 173.5,162.5C 173.5,168.5 173.5,174.5 173.5,180.5C 172.51,174.355 172.177,168.022 172.5,161.5C 176.371,161.185 180.038,161.518 183.5,162.5 Z"/></g>
<g><path style="opacity:1" fill="#ed0a06" d="M 183.5,162.5 C 186.675,162.84 188.841,164.507 190,167.5C 190.701,170.928 190.368,174.262 189,177.5C 187.829,178.893 186.329,179.727 184.5,180C 180.848,180.499 177.182,180.665 173.5,180.5C 173.5,174.5 173.5,168.5 173.5,162.5C 176.833,162.5 180.167,162.5 183.5,162.5 Z"/></g>
<g><path style="opacity:1" fill="#f79999" d="M 179.5,166.5 C 179.5,169.5 179.5,172.5 179.5,175.5C 180.5,175.5 181.5,175.5 182.5,175.5C 181.432,176.434 180.099,176.768 178.5,176.5C 178.187,172.958 178.521,169.625 179.5,166.5 Z"/></g>
<g><path style="opacity:1" fill="#fef9f9" d="M 179.5,166.5 C 184.151,167.174 185.651,169.841 184,174.5C 183.617,175.056 183.117,175.389 182.5,175.5C 181.5,175.5 180.5,175.5 179.5,175.5C 179.5,172.5 179.5,169.5 179.5,166.5 Z"/></g>
</svg>
